<svg version="1.1"
      xmlns="http://www.w3.org/2000/svg"
      xmlns:xlink="http://www.w3.org/1999/xlink"  id="snapshot-08613" width="200" height="200" viewBox="0 0 200 200"><desc>This image was made on Patterninja.com</desc><defs>
<!-- image 83844 -->
<g id="transformed-83844" data-image="83844" transform="translate(75.49495480964089, 91.24730082616415) rotate(36, 35.1650451903591, 35.88269917383585)"><g><svg version="1.1" width="70.3300903807182px" height="71.7653983476717px" viewBox="0 0 70.3300903807182 71.7653983476717"><g id="original-83844"><svg xmlns="http://www.w3.org/2000/svg" viewBox="0 0 70 71" xmlns:xlink="http://www.w3.org/1999/xlink" version="1.1" preserveAspectRatio="xMidYMid meet">
  <rect width="56" height="50" x="7" y="21" fill-rule="evenodd" rx="3" fill="rgba(0, 0, 0, 0.15)" stroke="none"/>
  <path fill-rule="evenodd" d="M35 21h25.009A2.991 2.991 0 0 1 63 23.997v44.006A2.996 2.996 0 0 1 60.009 71H35V21z" fill="rgba(0, 0, 0, 0)" stroke="none"/>
  <path fill-rule="evenodd" d="M63 57l7-4V38l-7-4v23zM0 38v15l7 4V34l-7 4z" fill="rgba(0, 0, 0, 0.15)" stroke="none"/>
  <path fill-rule="evenodd" d="M42 7a7 7 0 1 0-14 0 7 7 0 0 0 5 6.706V21h4v-7.294A7 7 0 0 0 42 7" fill="rgba(0, 0, 0, 0.15)" stroke="none"/>
  <path fill-rule="evenodd" d="M45 41a5 5 0 1 0 .001 10.001A5 5 0 0 0 45 41m-20 0a5 5 0 1 0 .001 10.001A5 5 0 0 0 25 41" fill="rgba(255, 255, 255, 1)" stroke="none"/>
</svg>
</g></svg></g></g>
<!-- /image 83844 -->

<!-- image 31356 -->
<g id="transformed-31356" data-image="31356" transform="translate(71.24298741960091, 83.36386471387846) rotate(34, 35.72701258039909, 36.456135286121544)"><g><svg version="1.1" width="71.45402516079818px" height="72.91227057224309px" viewBox="0 0 71.45402516079818 72.91227057224309"><g id="original-31356"><svg xmlns="http://www.w3.org/2000/svg" viewBox="0 0 70 71" xmlns:xlink="http://www.w3.org/1999/xlink" version="1.1" preserveAspectRatio="xMidYMid meet">
  <rect width="56" height="50" x="7" y="21" fill-rule="evenodd" rx="3" fill="rgba(160, 209, 192, 1)" stroke="none"/>
  <path fill-rule="evenodd" d="M35 21h25.009A2.991 2.991 0 0 1 63 23.997v44.006A2.996 2.996 0 0 1 60.009 71H35V21z" fill="rgba(160, 209, 192, 1)" stroke="none"/>
  <path fill-rule="evenodd" d="M63 57l7-4V38l-7-4v23zM0 38v15l7 4V34l-7 4z" fill="rgba(230, 163, 191, 1)" stroke="none"/>
  <path fill-rule="evenodd" d="M42 7a7 7 0 1 0-14 0 7 7 0 0 0 5 6.706V21h4v-7.294A7 7 0 0 0 42 7" fill="rgba(230, 163, 191, 1)" stroke="none"/>
  <path fill-rule="evenodd" d="M45 41a5 5 0 1 0 .001 10.001A5 5 0 0 0 45 41m-20 0a5 5 0 1 0 .001 10.001A5 5 0 0 0 25 41" fill="rgba(0, 0, 0, 0.4)" stroke="none"/>
</svg>
</g></svg></g></g>
<!-- /image 31356 -->

<!-- image 14316 -->
<g id="transformed-14316" data-image="14316" transform="translate(5.823918777118038, -1.1760812228819688) rotate(25, 41.14608122288196, 41.14608122288197)"><g><svg version="1.1" width="82.29216244576392px" height="82.29216244576394px" viewBox="0 0 82.29216244576392 82.29216244576394"><g id="original-14316"><svg xmlns="http://www.w3.org/2000/svg" viewBox="0 0 72 72" xmlns:xlink="http://www.w3.org/1999/xlink" version="1.1" preserveAspectRatio="xMidYMid meet">
  <path fill-rule="evenodd" d="M40.528 10H20a6 6 0 0 0-6 6v30a6 6 0 0 0 6 6h46a6 6 0 0 0 6-6V16a6 6 0 0 0-6-6h-4.522L51.823.345a1.159 1.159 0 0 0-1.64 0L40.528 10z" fill="rgba(16, 222, 255, 0)" stroke="none"/>
  <path fill-rule="evenodd" d="M31.472 62H52a6 6 0 0 0 6-6V26a6 6 0 0 0-6-6H6a6 6 0 0 0-6 6v30a6 6 0 0 0 6 6h4.522l9.655 9.655a1.159 1.159 0 0 0 1.64 0L31.472 62z" fill="rgba(0, 0, 0, 0.15)" stroke="none"/>
  <path fill-rule="evenodd" d="M41 37a4 4 0 1 1 0 8 4 4 0 0 1 0-8z" fill="rgba(255, 255, 255, 0.21511627906976744)" stroke="none"/>
  <path fill-rule="evenodd" d="M29 37a4 4 0 1 1 0 8 4 4 0 0 1 0-8z" fill="rgba(255, 255, 255, 0.21511627906976744)" stroke="none"/>
  <path fill-rule="evenodd" d="M17 37a4 4 0 1 1 0 8 4 4 0 0 1 0-8z" fill="rgba(255, 255, 255, 0.21511627906976744)" stroke="none"/>
</svg>
</g></svg></g></g>
<!-- /image 14316 -->

<!-- image 69231 -->
<g id="transformed-69231" data-image="69231" transform="translate(158.11884250208533, 88.94473724702587) rotate(322, 33.52115749791464, 34.20526275297414)"><g><svg version="1.1" width="67.04231499582929px" height="68.41052550594829px" viewBox="0 0 67.04231499582929 68.41052550594829"><g id="original-69231"><svg xmlns="http://www.w3.org/2000/svg" viewBox="0 0 70 71" xmlns:xlink="http://www.w3.org/1999/xlink" version="1.1" preserveAspectRatio="xMidYMid meet">
  <rect width="56" height="50" x="7" y="21" fill-rule="evenodd" rx="3" fill="rgba(0, 0, 0, 0.15)" stroke="none"/>
  <path fill-rule="evenodd" d="M35 21h25.009A2.991 2.991 0 0 1 63 23.997v44.006A2.996 2.996 0 0 1 60.009 71H35V21z" fill="rgba(0, 0, 0, 0)" stroke="none"/>
  <path fill-rule="evenodd" d="M63 57l7-4V38l-7-4v23zM0 38v15l7 4V34l-7 4z" fill="rgba(0, 0, 0, 0.15)" stroke="none"/>
  <path fill-rule="evenodd" d="M42 7a7 7 0 1 0-14 0 7 7 0 0 0 5 6.706V21h4v-7.294A7 7 0 0 0 42 7" fill="rgba(0, 0, 0, 0.15)" stroke="none"/>
  <path fill-rule="evenodd" d="M45 41a5 5 0 1 0 .001 10.001A5 5 0 0 0 45 41m-20 0a5 5 0 1 0 .001 10.001A5 5 0 0 0 25 41" fill="rgba(255, 255, 255, 1)" stroke="none"/>
</svg>
</g></svg></g></g>
<!-- /image 69231 -->

<!-- image 81148 -->
<g id="transformed-81148" data-image="81148" transform="translate(3.8239187771180383, -11.146081222881968) rotate(25, 41.14608122288196, 41.14608122288197)"><g><svg version="1.1" width="82.29216244576392px" height="82.29216244576394px" viewBox="0 0 82.29216244576392 82.29216244576394"><g id="original-81148"><svg xmlns="http://www.w3.org/2000/svg" viewBox="0 0 72 72" xmlns:xlink="http://www.w3.org/1999/xlink" version="1.1" preserveAspectRatio="xMidYMid meet">
  <path fill-rule="evenodd" d="M40.528 10H20a6 6 0 0 0-6 6v30a6 6 0 0 0 6 6h46a6 6 0 0 0 6-6V16a6 6 0 0 0-6-6h-4.522L51.823.345a1.159 1.159 0 0 0-1.64 0L40.528 10z" fill="rgba(16, 222, 255, 0)" stroke="none"/>
  <path fill-rule="evenodd" d="M31.472 62H52a6 6 0 0 0 6-6V26a6 6 0 0 0-6-6H6a6 6 0 0 0-6 6v30a6 6 0 0 0 6 6h4.522l9.655 9.655a1.159 1.159 0 0 0 1.64 0L31.472 62z" fill="rgba(175, 175, 175, 1)" stroke="none"/>
  <path fill-rule="evenodd" d="M41 37a4 4 0 1 1 0 8 4 4 0 0 1 0-8z" fill="rgba(0, 0, 0, 0.4)" stroke="none"/>
  <path fill-rule="evenodd" d="M29 37a4 4 0 1 1 0 8 4 4 0 0 1 0-8z" fill="rgba(0, 0, 0, 0.4)" stroke="none"/>
  <path fill-rule="evenodd" d="M17 37a4 4 0 1 1 0 8 4 4 0 0 1 0-8z" fill="rgba(0, 0, 0, 0.4)" stroke="none"/>
</svg>
</g></svg></g></g>
<!-- /image 81148 -->

<!-- image 00475 -->
<g id="transformed-00475" data-image="00475" transform="translate(150.44884250208537, 87.12473724702585) rotate(325, 33.52115749791464, 34.20526275297414)"><g><svg version="1.1" width="67.04231499582929px" height="68.41052550594829px" viewBox="0 0 67.04231499582929 68.41052550594829"><g id="original-00475"><svg xmlns="http://www.w3.org/2000/svg" viewBox="0 0 70 71" xmlns:xlink="http://www.w3.org/1999/xlink" version="1.1" preserveAspectRatio="xMidYMid meet">
  <rect width="56" height="50" x="7" y="21" fill-rule="evenodd" rx="3" fill="rgba(107, 71, 138, 1)" stroke="none"/>
  <path fill-rule="evenodd" d="M35 21h25.009A2.991 2.991 0 0 1 63 23.997v44.006A2.996 2.996 0 0 1 60.009 71H35V21z" fill="rgba(107, 71, 138, 1)" stroke="none"/>
  <path fill-rule="evenodd" d="M63 57l7-4V38l-7-4v23zM0 38v15l7 4V34l-7 4z" fill="rgba(199, 163, 230, 1)" stroke="none"/>
  <path fill-rule="evenodd" d="M42 7a7 7 0 1 0-14 0 7 7 0 0 0 5 6.706V21h4v-7.294A7 7 0 0 0 42 7" fill="rgba(199, 163, 230, 1)" stroke="none"/>
  <path fill-rule="evenodd" d="M45 41a5 5 0 1 0 .001 10.001A5 5 0 0 0 45 41m-20 0a5 5 0 1 0 .001 10.001A5 5 0 0 0 25 41" fill="rgba(0, 0, 0, 0.4)" stroke="none"/>
</svg>
</g></svg></g></g>
<!-- /image 00475 -->
</defs><rect x="0" y="0" width="200" height="200" fill="rgba(120, 79, 124, 1)"></rect><use xlink:href="#transformed-83844" transform="translate(-200, -200)"></use><use xlink:href="#transformed-83844" transform="translate(0, -200)"></use><use xlink:href="#transformed-83844" transform="translate(200, -200)"></use><use xlink:href="#transformed-83844" transform="translate(-200, 0)"></use><use xlink:href="#transformed-83844" transform="translate(0, 0)"></use><use xlink:href="#transformed-83844" transform="translate(200, 0)"></use><use xlink:href="#transformed-83844" transform="translate(-200, 200)"></use><use xlink:href="#transformed-83844" transform="translate(0, 200)"></use><use xlink:href="#transformed-83844" transform="translate(200, 200)"></use><use xlink:href="#transformed-31356" transform="translate(-200, -200)"></use><use xlink:href="#transformed-31356" transform="translate(0, -200)"></use><use xlink:href="#transformed-31356" transform="translate(200, -200)"></use><use xlink:href="#transformed-31356" transform="translate(-200, 0)"></use><use xlink:href="#transformed-31356" transform="translate(0, 0)"></use><use xlink:href="#transformed-31356" transform="translate(200, 0)"></use><use xlink:href="#transformed-31356" transform="translate(-200, 200)"></use><use xlink:href="#transformed-31356" transform="translate(0, 200)"></use><use xlink:href="#transformed-31356" transform="translate(200, 200)"></use><use xlink:href="#transformed-14316" transform="translate(-200, -200)"></use><use xlink:href="#transformed-14316" transform="translate(0, -200)"></use><use xlink:href="#transformed-14316" transform="translate(200, -200)"></use><use xlink:href="#transformed-14316" transform="translate(-200, 0)"></use><use xlink:href="#transformed-14316" transform="translate(0, 0)"></use><use xlink:href="#transformed-14316" transform="translate(200, 0)"></use><use xlink:href="#transformed-14316" transform="translate(-200, 200)"></use><use xlink:href="#transformed-14316" transform="translate(0, 200)"></use><use xlink:href="#transformed-14316" transform="translate(200, 200)"></use><use xlink:href="#transformed-69231" transform="translate(-200, -200)"></use><use xlink:href="#transformed-69231" transform="translate(0, -200)"></use><use xlink:href="#transformed-69231" transform="translate(200, -200)"></use><use xlink:href="#transformed-69231" transform="translate(-200, 0)"></use><use xlink:href="#transformed-69231" transform="translate(0, 0)"></use><use xlink:href="#transformed-69231" transform="translate(200, 0)"></use><use xlink:href="#transformed-69231" transform="translate(-200, 200)"></use><use xlink:href="#transformed-69231" transform="translate(0, 200)"></use><use xlink:href="#transformed-69231" transform="translate(200, 200)"></use><use xlink:href="#transformed-81148" transform="translate(-200, -200)"></use><use xlink:href="#transformed-81148" transform="translate(0, -200)"></use><use xlink:href="#transformed-81148" transform="translate(200, -200)"></use><use xlink:href="#transformed-81148" transform="translate(-200, 0)"></use><use xlink:href="#transformed-81148" transform="translate(0, 0)"></use><use xlink:href="#transformed-81148" transform="translate(200, 0)"></use><use xlink:href="#transformed-81148" transform="translate(-200, 200)"></use><use xlink:href="#transformed-81148" transform="translate(0, 200)"></use><use xlink:href="#transformed-81148" transform="translate(200, 200)"></use><use xlink:href="#transformed-00475" transform="translate(-200, -200)"></use><use xlink:href="#transformed-00475" transform="translate(0, -200)"></use><use xlink:href="#transformed-00475" transform="translate(200, -200)"></use><use xlink:href="#transformed-00475" transform="translate(-200, 0)"></use><use xlink:href="#transformed-00475" transform="translate(0, 0)"></use><use xlink:href="#transformed-00475" transform="translate(200, 0)"></use><use xlink:href="#transformed-00475" transform="translate(-200, 200)"></use><use xlink:href="#transformed-00475" transform="translate(0, 200)"></use><use xlink:href="#transformed-00475" transform="translate(200, 200)"></use></svg>