<svg version="1.1"
      xmlns="http://www.w3.org/2000/svg"
      xmlns:xlink="http://www.w3.org/1999/xlink"  id="snapshot-44014" width="200" height="200" viewBox="0 0 200 200"><desc>This image was made on Patterninja.com</desc><defs>
<!-- image 36593 -->
<g id="transformed-36593" data-image="36593" transform="translate(112.64999999999999, 135) rotate(282, 9.350000000000007, 10)"><g><svg version="1.1" width="18.700000000000014px" height="20px" viewBox="0 0 18.700000000000014 20"><g id="original-36593"><svg xmlns="http://www.w3.org/2000/svg" viewBox="0 0 60 64" xmlns:xlink="http://www.w3.org/1999/xlink" version="1.1" preserveAspectRatio="xMidYMid meet">
  <path fill-rule="evenodd" d="M30 63.99L0 46V15L30 0l30 15v31z" fill="rgba(0, 0, 0, 0.09302325581395349)" stroke="none"/>
  <path fill-rule="evenodd" d="M0 30.5V15l30 15v33.99L0 46z" fill="rgba(0, 0, 0, 0)" stroke="none"/>
  <path fill-rule="evenodd" d="M60 30.5V15L30 30v33.99L60 46z" fill="rgba(0, 0, 0, 0)" stroke="none"/>
</svg>
</g></svg></g></g>
<!-- /image 36593 -->

<!-- image 85670 -->
<g id="transformed-85670" data-image="85670" transform="translate(-6.350000000000007, 74) rotate(282, 9.350000000000007, 10)"><g><svg version="1.1" width="18.700000000000014px" height="20px" viewBox="0 0 18.700000000000014 20"><g id="original-85670"><svg xmlns="http://www.w3.org/2000/svg" viewBox="0 0 60 64" xmlns:xlink="http://www.w3.org/1999/xlink" version="1.1" preserveAspectRatio="xMidYMid meet">
  <path fill-rule="evenodd" d="M30 63.99L0 46V15L30 0l30 15v31z" fill="rgba(0, 0, 0, 0.09302325581395349)" stroke="none"/>
  <path fill-rule="evenodd" d="M0 30.5V15l30 15v33.99L0 46z" fill="rgba(0, 0, 0, 0)" stroke="none"/>
  <path fill-rule="evenodd" d="M60 30.5V15L30 30v33.99L60 46z" fill="rgba(0, 0, 0, 0)" stroke="none"/>
</svg>
</g></svg></g></g>
<!-- /image 85670 -->

<!-- image 14316 -->
<g id="transformed-14316" data-image="14316" transform="translate(42, 45) rotate(25, 41, 41)"><g><svg version="1.1" width="82px" height="82px" viewBox="0 0 82 82"><g id="original-14316"><svg xmlns="http://www.w3.org/2000/svg" viewBox="0 0 72 72" xmlns:xlink="http://www.w3.org/1999/xlink" version="1.1">
  <path d="M40.528 10H20a6 6 0 0 0-6 6v30a6 6 0 0 0 6 6h46a6 6 0 0 0 6-6V16a6 6 0 0 0-6-6h-4.522L51.823.345a1.159 1.159 0 0 0-1.64 0L40.528 10z" fill-rule="evenodd" fill="rgba(16, 222, 255, 0)" stroke="none"/>
  <path d="M31.472 62H52a6 6 0 0 0 6-6V26a6 6 0 0 0-6-6H6a6 6 0 0 0-6 6v30a6 6 0 0 0 6 6h4.522l9.655 9.655a1.159 1.159 0 0 0 1.64 0L31.472 62z" fill-rule="evenodd" fill="rgba(0, 0, 0, 0.15)" stroke="none"/>
  <path d="M41 37a4 4 0 1 1 0 8 4 4 0 0 1 0-8z" fill-rule="evenodd" fill="rgba(255, 255, 255, 0.21511627906976744)" stroke="none"/>
  <path d="M29 37a4 4 0 1 1 0 8 4 4 0 0 1 0-8z" fill-rule="evenodd" fill="rgba(255, 255, 255, 0.21511627906976744)" stroke="none"/>
  <path d="M17 37a4 4 0 1 1 0 8 4 4 0 0 1 0-8z" fill-rule="evenodd" fill="rgba(255, 255, 255, 0.21511627906976744)" stroke="none"/>
</svg>
</g></svg></g></g>
<!-- /image 14316 -->

<!-- image 69231 -->
<g id="transformed-69231" data-image="69231" transform="translate(164.5, 147) rotate(322, 33.5, 34)"><g><svg version="1.1" width="67px" height="68px" viewBox="0 0 67 68"><g id="original-69231"><svg xmlns="http://www.w3.org/2000/svg" viewBox="0 0 70 71" xmlns:xlink="http://www.w3.org/1999/xlink" version="1.1">
  <rect width="56" height="50" x="7" y="21" rx="3" fill-rule="evenodd" fill="rgba(0, 0, 0, 0.15)" stroke="none"/>
  <path d="M35 21h25.009A2.991 2.991 0 0 1 63 23.997v44.006A2.996 2.996 0 0 1 60.009 71H35V21z" fill-rule="evenodd" fill="rgba(0, 0, 0, 0)" stroke="none"/>
  <path d="M63 57l7-4V38l-7-4v23zM0 38v15l7 4V34l-7 4z" fill-rule="evenodd" fill="rgba(0, 0, 0, 0.15)" stroke="none"/>
  <path d="M42 7a7 7 0 1 0-14 0 7 7 0 0 0 5 6.706V21h4v-7.294A7 7 0 0 0 42 7" fill-rule="evenodd" fill="rgba(0, 0, 0, 0.15)" stroke="none"/>
  <path d="M45 41a5 5 0 1 0 .001 10.001A5 5 0 0 0 45 41m-20 0a5 5 0 1 0 .001 10.001A5 5 0 0 0 25 41" fill-rule="evenodd" fill="rgba(255, 255, 255, 0.14534883720930233)" stroke="none"/>
</svg>
</g></svg></g></g>
<!-- /image 69231 -->

<!-- image 14229 -->
<g id="transformed-14229" data-image="14229" transform="translate(81.64999999999999, 7) rotate(282, 9.350000000000007, 10)"><g><svg version="1.1" width="18.700000000000014px" height="20px" viewBox="0 0 18.700000000000014 20"><g id="original-14229"><svg xmlns="http://www.w3.org/2000/svg" viewBox="0 0 60 64" xmlns:xlink="http://www.w3.org/1999/xlink" version="1.1" preserveAspectRatio="xMidYMid meet">
  <path fill-rule="evenodd" d="M30 63.99L0 46V15L30 0l30 15v31z" fill="rgba(0, 0, 0, 0.09302325581395349)" stroke="none"/>
  <path fill-rule="evenodd" d="M0 30.5V15l30 15v33.99L0 46z" fill="rgba(0, 0, 0, 0)" stroke="none"/>
  <path fill-rule="evenodd" d="M60 30.5V15L30 30v33.99L60 46z" fill="rgba(0, 0, 0, 0)" stroke="none"/>
</svg>
</g></svg></g></g>
<!-- /image 14229 -->
</defs><rect x="0" y="0" width="200" height="200" fill="rgba(120, 79, 124, 1)"></rect><use xlink:href="#transformed-36593" transform="translate(-200, -200)"></use><use xlink:href="#transformed-36593" transform="translate(0, -200)"></use><use xlink:href="#transformed-36593" transform="translate(200, -200)"></use><use xlink:href="#transformed-36593" transform="translate(-200, 0)"></use><use xlink:href="#transformed-36593" transform="translate(0, 0)"></use><use xlink:href="#transformed-36593" transform="translate(200, 0)"></use><use xlink:href="#transformed-36593" transform="translate(-200, 200)"></use><use xlink:href="#transformed-36593" transform="translate(0, 200)"></use><use xlink:href="#transformed-36593" transform="translate(200, 200)"></use><use xlink:href="#transformed-85670" transform="translate(-200, -200)"></use><use xlink:href="#transformed-85670" transform="translate(0, -200)"></use><use xlink:href="#transformed-85670" transform="translate(200, -200)"></use><use xlink:href="#transformed-85670" transform="translate(-200, 0)"></use><use xlink:href="#transformed-85670" transform="translate(0, 0)"></use><use xlink:href="#transformed-85670" transform="translate(200, 0)"></use><use xlink:href="#transformed-85670" transform="translate(-200, 200)"></use><use xlink:href="#transformed-85670" transform="translate(0, 200)"></use><use xlink:href="#transformed-85670" transform="translate(200, 200)"></use><use xlink:href="#transformed-14316" transform="translate(-200, -200)"></use><use xlink:href="#transformed-14316" transform="translate(0, -200)"></use><use xlink:href="#transformed-14316" transform="translate(200, -200)"></use><use xlink:href="#transformed-14316" transform="translate(-200, 0)"></use><use xlink:href="#transformed-14316" transform="translate(0, 0)"></use><use xlink:href="#transformed-14316" transform="translate(200, 0)"></use><use xlink:href="#transformed-14316" transform="translate(-200, 200)"></use><use xlink:href="#transformed-14316" transform="translate(0, 200)"></use><use xlink:href="#transformed-14316" transform="translate(200, 200)"></use><use xlink:href="#transformed-69231" transform="translate(-200, -200)"></use><use xlink:href="#transformed-69231" transform="translate(0, -200)"></use><use xlink:href="#transformed-69231" transform="translate(200, -200)"></use><use xlink:href="#transformed-69231" transform="translate(-200, 0)"></use><use xlink:href="#transformed-69231" transform="translate(0, 0)"></use><use xlink:href="#transformed-69231" transform="translate(200, 0)"></use><use xlink:href="#transformed-69231" transform="translate(-200, 200)"></use><use xlink:href="#transformed-69231" transform="translate(0, 200)"></use><use xlink:href="#transformed-69231" transform="translate(200, 200)"></use><use xlink:href="#transformed-14229" transform="translate(-200, -200)"></use><use xlink:href="#transformed-14229" transform="translate(0, -200)"></use><use xlink:href="#transformed-14229" transform="translate(200, -200)"></use><use xlink:href="#transformed-14229" transform="translate(-200, 0)"></use><use xlink:href="#transformed-14229" transform="translate(0, 0)"></use><use xlink:href="#transformed-14229" transform="translate(200, 0)"></use><use xlink:href="#transformed-14229" transform="translate(-200, 200)"></use><use xlink:href="#transformed-14229" transform="translate(0, 200)"></use><use xlink:href="#transformed-14229" transform="translate(200, 200)"></use></svg>